<?xml version="1.0" encoding="utf-8"?>
<!-- Generator: Adobe Illustrator 16.0.0, SVG Export Plug-In . SVG Version: 6.00 Build 0)  -->
<!DOCTYPE svg PUBLIC "-//W3C//DTD SVG 1.1//EN" "http://www.w3.org/Graphics/SVG/1.1/DTD/svg11.dtd">
<svg version="1.1" id="Layer_1" xmlns="http://www.w3.org/2000/svg" xmlns:xlink="http://www.w3.org/1999/xlink" x="0px" y="0px"
	 width="1600px" height="198px" viewBox="0 0 1600 198" enable-background="new 0 0 1600 198" xml:space="preserve">
<linearGradient id="SVGID_1_" gradientUnits="userSpaceOnUse" x1="637.5791" y1="-167.8081" x2="637.5791" y2="47.3468" gradientTransform="matrix(1 0 0 -1 379.1602 51.4004)">
	<stop  offset="0" style="stop-color:#FFFFFF;stop-opacity:0.1"/>
	<stop  offset="1" style="stop-color:#000000;stop-opacity:0.1"/>
</linearGradient>
<path fill="url(#SVGID_1_)" d="M415.61,140.588c0,0,260.987-124.493,439.478-44.997c22.997,10.242,122.695,32.474,157.492,40.497
	c104.949,24.199,226.865,33.871,611.54,61.912h409.358c0,0-433.483-48-433.483-77c-159.901,0-302.717-4.348-455.422-34.409
	C1000.279,58.187,847.469,3.973,652.598,4.095C252.598,4.095,289,121,0,121v77h58.882
	C168.225,184.641,292.704,197.703,415.61,140.588z"/>
</svg>
