<svg height="512pt" viewBox="-5 0 512 512.00105" width="512pt" xmlns="http://www.w3.org/2000/svg"><path d="m493.792969 284.867188c-.109375-.097657-.214844-.195313-.328125-.285157-3.886719-3.21875-8.875-5.15625-14.304688-5.15625h-43.640625v-88.433593h10.980469c12.410156 0 22.472656-10.058594 22.472656-22.46875v-48.847657c0-12.410156-10.0625-22.472656-22.472656-22.472656h-10.980469v-26.382813c0-12.410156-10.058593-22.46875-22.472656-22.46875h-24.652344v-6.261718c0-12.894532-10.453125-23.347656-23.347656-23.347656h-2.875v-10.96875c0-3.828126-2.75-7.253907-6.550781-7.7148442-4.558594-.5546878-8.429688 2.9882812-8.429688 7.4296872v11.253907h-2.875c-12.894531 0-23.347656 10.453124-23.347656 23.347656v6.261718h-134.996094v-6.261718c0-12.894532-10.449218-23.347656-23.34375-23.347656h-2.878906v-10.96875c0-3.828126-2.75-7.253907-6.550781-7.7148442-4.554688-.5546878-8.425781 2.9882812-8.425781 7.4296872v11.253907h-2.878907c-12.894531 0-23.34375 10.453124-23.34375 23.347656v6.261718h-27.386719c-12.410156 0-22.472656 10.058594-22.472656 22.46875v98.507813c0 3.828125 2.753906 7.253906 6.554688 7.714844 4.554687.554687 8.425781-2.988281 8.425781-7.433594v-98.789063c0-4.136718 3.355469-7.488281 7.492187-7.488281h27.382813v8.800781c0 4.136719 3.355469 7.488282 7.492187 7.488282h52.441407c4.136719 0 7.492187-3.351563 7.492187-7.488282v-8.800781h134.992188v8.800781c0 4.136719 3.355468 7.488282 7.492187 7.488282h52.441407c4.136718 0 7.492187-3.351563 7.492187-7.488282v-8.800781h24.65625c4.136719 0 7.488281 3.351563 7.488281 7.488281v26.382813h-85.257812c-12.410156 0-22.46875 10.0625-22.46875 22.472656v48.847657c0 12.410156 10.058594 22.46875 22.46875 22.46875h85.257812v88.433593h-205.667968c-5.433594 0-10.417969 1.9375-14.308594 5.160157-.113282.089843-.21875.183593-.328125.28125-4.789063 4.125-7.835938 10.226562-7.835938 17.03125v147.453124c0 6.222657 2.546875 11.863282 6.648438 15.9375.027343.027344.050781.054688.078125.082032.023437.023437.050781.042968.078125.066406 4.050781 3.945312 9.578125 6.382812 15.667969 6.382812h205.671874v17.710938c0 4.136719-3.355468 7.488281-7.492187 7.488281h-321.882813c-4.136718 0-7.492187-3.351562-7.492187-7.488281v-236.691406h212.578125c14.015625 0 26.054688-10.613282 27.105469-24.589844 1.179687-15.617188-11.195313-28.699219-26.566407-28.699219h-243.804687c-.777344 0-1.546875.117188-2.285156.355469l-41.660157 13.34375c-.242187.078125-.484374.167969-.71875.273438-5.160156 2.328124-8.351562 7.304687-8.320312 12.953124.03125 5.644532 3.277344 10.585938 8.460938 12.855469.230468.101563.472656.183594.714843.261719l41.589844 12.910156c.71875.222656 1.464844.335938 2.21875.335938h15.710937v236.691406c0 12.410156 10.058594 22.46875 22.46875 22.46875h321.886719c12.410157 0 22.46875-10.058594 22.46875-22.46875v-17.710938h43.640625c12.410156 0 22.46875-10.058593 22.46875-22.46875v-147.453124c0-6.804688-3.042968-12.910157-7.835937-17.03125zm-322.800781-220.226563h-37.460938v-22.550781c0-4.621094 3.742188-8.367188 8.363281-8.367188h2.878907v4.664063c0 4.117187 3.46875 7.832031 7.585937 7.832031 4.289063 0 7.390625-3.773438 7.390625-7.488281v-5.007813h2.878906c4.621094 0 8.363282 3.746094 8.363282 8.367188zm202.421874 0h-37.464843v-22.550781c0-4.621094 3.746093-8.367188 8.367187-8.367188h2.875v4.726563c0 3.828125 2.871094 7.714843 7.613282 7.714843 4.589843 0 7.367187-3.929687 7.367187-7.429687v-5.007813h2.875c4.621094 0 8.367187 3.742188 8.367187 8.363282zm-319.132812 173.21875h-.160156l-36.972656-11.476563 37.007812-11.851562h.125zm14.980469 0v-23.328125h227.132812c6.101563 0 11.464844 4.515625 12.011719 10.589844.621094 6.914062-4.832031 12.738281-11.617188 12.738281zm266.019531-61.847656c-4.136719 0-7.492188-3.351563-7.492188-7.488281v-48.847657c0-4.136719 3.355469-7.488281 7.492188-7.488281h111.21875c4.136719 0 7.488281 3.351562 7.488281 7.488281v48.847657c0 4.136718-3.351562 7.488281-7.488281 7.488281zm133.902344 118.394531-122.171875 80.59375-122.167969-80.59375zm17.464844 146.402344-66.359376-69.863282c-2.847656-3-7.589843-3.121093-10.589843-.273437-2.996094 2.847656-3.121094 7.589844-.269531 10.589844l71.804687 75.585937-263.683594-.007812 68.085938-71.679688c2.847656-2.996094 2.726562-7.738281-.273438-10.585937-3-2.851563-7.738281-2.730469-10.589843.273437l-67.398438 70.953125v-144.964843l135.511719 89.390624c2.476562 1.632813 5.773437 1.632813 8.25 0l135.511719-89.371093zm0 0"/><path d="m94.527344 324.292969c0 24.734375 20.125 44.863281 44.863281 44.863281s44.863281-20.128906 44.863281-44.863281c0-24.742188-20.125-44.867188-44.863281-44.867188s-44.863281 20.125-44.863281 44.867188zm74.746094 0c0 16.476562-13.40625 29.882812-29.882813 29.882812-16.480469 0-29.886719-13.40625-29.886719-29.882812 0-16.480469 13.40625-29.886719 29.886719-29.886719 16.476563 0 29.882813 13.40625 29.882813 29.886719zm0 0"/></svg>