<?xml version="1.0" encoding="utf-8"?>
<!-- Generator: Adobe Illustrator 16.0.0, SVG Export Plug-In . SVG Version: 6.00 Build 0)  -->
<!DOCTYPE svg PUBLIC "-//W3C//DTD SVG 1.1//EN" "http://www.w3.org/Graphics/SVG/1.1/DTD/svg11.dtd">
<svg version="1.1" id="Layer_5" xmlns="http://www.w3.org/2000/svg" xmlns:xlink="http://www.w3.org/1999/xlink" x="0px" y="0px"
	 width="35px" height="35px" viewBox="0 0 512 512" enable-background="new 0 0 512 512" xml:space="preserve">
<g>
	<path fill="#ffffff" d="M368,120c-48.521,0-88,39.48-88,88c0,48.52,39.479,88,88,88c48.52,0,88-39.48,88-88
		C456,159.48,416.52,120,368,120z M368,280c-39.696,0-72-32.296-72-72s32.304-72,72-72c39.695,0,72,32.296,72,72
		S407.696,280,368,280z"/>
	<path fill="#ffffff" d="M368,168c-22.057,0-40,17.944-40,40s17.943,40,40,40c22.056,0,40-17.944,40-40S390.056,168,368,168z
		 M368,232c-13.232,0-24-10.768-24-24s10.768-24,24-24c13.231,0,24,10.768,24,24S381.232,232,368,232z"/>
	<path fill="#ffffff" d="M504,237.832V178.16l-21.872-7.008c-1.984-6.176-4.448-12.152-7.353-17.832l10.496-20.392
		l-42.192-42.192L424,100.544V8H140.688L56,92.688v299.953C28.904,396.544,8,419.848,8,448c0,30.872,25.12,56,56,56h353.848
		l74.88-36.568l0.728-0.407C500.056,462.896,504,455.784,504,448s-3.944-14.896-10.545-19.024L424,395.008v-79.56l19.071,9.808
		l42.192-42.184l-10.496-20.393c2.904-5.672,5.36-11.64,7.352-17.832L504,237.832z M408,95.032c-1.057-0.376-2.08-0.808-3.152-1.152
		L397.831,72h-59.672l-7.008,21.872c-6.191,1.992-12.16,4.456-17.832,7.352l-20.392-10.496l-42.192,42.192l10.496,20.392
		c-2.903,5.688-5.368,11.656-7.352,17.832L232,178.168v59.672l21.872,7.008c1.991,6.192,4.447,12.167,7.352,17.832l-10.496,20.393
		l42.192,42.184l20.384-10.488c5.672,2.896,11.647,5.36,17.832,7.353l7.032,21.88h59.672l7.008-21.872
		c1.072-0.344,2.096-0.784,3.152-1.151V392H72V104h80V24h256V95.032z M408,408v32H104v-32H408z M104,456h304v32H104V456z M83.312,88
		L136,35.312V88H83.312z M24,448c0-22.056,17.943-40,40-40h24v80H64C41.944,488,24,470.056,24,448z M488,448
		c0,2.12-1.017,4.072-2.744,5.272L424,483.192v-70.384l61.256,29.92C486.984,443.928,488,445.88,488,448L488,448z M469.152,232.192
		l-1.168,4.136c-2.231,7.912-5.336,15.44-9.224,22.367l-2.104,3.753l9.04,17.56l-25.688,25.688l-17.561-9.031l-3.744,2.104
		c-6.936,3.873-14.455,6.977-22.367,9.217l-4.137,1.168L386.168,328H349.84l-6.04-18.848l-4.137-1.168
		c-7.911-2.24-15.432-5.344-22.367-9.217l-3.744-2.104l-17.56,9.031l-25.688-25.688l9.04-17.56l-2.104-3.753
		c-3.881-6.927-6.992-14.455-9.225-22.367l-1.168-4.136L248,226.168V189.84l18.848-6.032l1.168-4.136
		c2.225-7.888,5.336-15.416,9.225-22.376l2.096-3.752l-9.032-17.552l25.688-25.696l17.56,9.04l3.744-2.104
		c6.936-3.872,14.456-6.976,22.367-9.216l4.137-1.168L349.832,88h36.327l6.04,18.848l4.137,1.168
		c7.911,2.24,15.432,5.344,22.367,9.216l3.744,2.104l17.561-9.04l25.688,25.696l-9.032,17.552l2.097,3.752
		c3.896,6.96,7,14.488,9.224,22.376l1.168,4.136L488,189.832v36.328L469.152,232.192z"/>
	<path fill="#ffffff" d="M88,144c0,13.232,10.768,24,24,24h80c4.408,0,8,3.584,8,8s-3.592,8-8,8h-40
		c-13.232,0-24,10.768-24,24s10.768,24,24,24h16c4.408,0,8,3.584,8,8s-3.592,8-8,8h-56c-13.232,0-24,10.768-24,24s10.768,24,24,24
		h112v-16H112c-4.408,0-8-3.584-8-8s3.592-8,8-8h56c13.231,0,24-10.768,24-24s-10.769-24-24-24h-16c-4.408,0-8-3.584-8-8
		s3.592-8,8-8h40c13.231,0,24-10.768,24-24s-10.769-24-24-24h-80c-4.408,0-8-3.584-8-8s3.592-8,8-8h120v-16H112
		C98.768,120,88,130.768,88,144z"/>
	<path fill="#ffffff" d="M88,328h16v16H88V328z"/>
	<path fill="#ffffff" d="M120,328h112v16H120V328z"/>
	<path fill="#ffffff" d="M88,360h144v16H88V360z"/>
	<path fill="#ffffff" d="M248,360h16v16h-16V360z"/>
	<path fill="#ffffff" d="M312,360h16v16h-16V360z"/>
	<path fill="#ffffff" d="M280,360h16v16h-16V360z"/>
	<path fill="#ffffff" d="M376,40h16v16h-16V40z"/>
	<path fill="#ffffff" d="M312,40h16v16h-16V40z"/>
	<path fill="#ffffff" d="M344,40h16v16h-16V40z"/>
</g>
</svg>
