<?xml version="1.0" encoding="utf-8"?>
<!-- Generator: Adobe Illustrator 16.0.0, SVG Export Plug-In . SVG Version: 6.00 Build 0)  -->
<!DOCTYPE svg PUBLIC "-//W3C//DTD SVG 1.1//EN" "http://www.w3.org/Graphics/SVG/1.1/DTD/svg11.dtd">
<svg version="1.1" id="Layer_1" xmlns="http://www.w3.org/2000/svg" xmlns:xlink="http://www.w3.org/1999/xlink" x="0px" y="0px"
	 width="35px" height="35px" viewBox="0 0 512 512" enable-background="new 0 0 512 512" xml:space="preserve">
<path fill="#ffffff" d="M489.44,312.8c-3.025-8.259-9.34-14.892-17.439-18.319V72c-0.04-13.238-10.762-23.96-24-24H192
	c-13.238,0.04-23.961,10.762-24,24v224.24c-9.077,4.125-17.754,9.08-25.92,14.8l-25.12,17.601l-9.2-13.121
	c-2.54-3.59-7.488-4.479-11.12-2L18,368.561c-3.601,2.568-4.488,7.543-2,11.199l82.64,117.92c2.522,3.618,7.496,4.513,11.12,2
	l78.64-55.04c3.593-2.573,4.479-7.541,2-11.199l-4.56-6.48c15.437-10.546,34.401-14.598,52.8-11.28l14.24,2.4
	c17.99,3.195,36.505,1.596,53.68-4.641l163.76-59.6c16.608-6.043,25.173-24.404,19.13-41.013
	C489.447,312.818,489.443,312.809,489.44,312.8L489.44,312.8z M360,64h88c4.418,0,8,3.582,8,8v24h-96V64z M296,64h48v68.72
	l-18.32-18.4c-3.145-3.12-8.216-3.12-11.36,0L296,132.72V64z M184,72c0-4.418,3.581-8,8-8h88v32h-96V72z M184,112h96v40
	c-0.013,3.238,1.953,6.156,4.96,7.36c2.979,1.253,6.419,0.59,8.72-1.68l26.32-26.4l26.319,26.4c1.514,1.492,3.555,2.326,5.681,2.32
	c1.049,0.028,2.09-0.191,3.039-0.64c3.007-1.204,4.973-4.122,4.961-7.36v-40h96v180.08c-2.564,0.217-5.091,0.754-7.521,1.6
	L420.159,304H363.92c-4.222-3.604-9.333-6.008-14.801-6.96l-80.399-14.16c-25.978-4.595-52.672-3.005-77.92,4.64l-1.44,0.48
	c-1.84,0.48-3.6,1.2-5.359,1.84V112z M107.12,482L33.76,377.12l65.52-45.92l73.36,104.88L107.12,482z M475.199,326.561
	c-1.004,5.631-4.939,10.298-10.319,12.239L301.119,398.4c-14.537,5.281-30.212,6.634-45.439,3.92l-14.32-2.4
	c-22.564-4.063-45.82,0.939-64.72,13.92l-50.479-72.16l25.119-17.52c12.961-9.154,27.302-16.176,42.48-20.801l1.44-0.399
	c22.936-6.958,47.179-8.464,70.8-4.399l80.319,14.16c4.199,0.773,7.932,3.155,10.4,6.639c1.4,2.059,2.304,4.414,2.64,6.881
	c0.409,2.239,0.272,4.545-0.399,6.72c-2.286,7.928-10.203,12.837-18.32,11.36l-86.479-15.28l-2.721,15.681L337.84,360
	c1.868,0.385,3.771,0.572,5.68,0.561c14.141-0.014,26.611-9.27,30.72-22.801l79.681-29.039c8.306-3.002,17.473,1.295,20.479,9.6
	C475.424,320.939,475.7,323.793,475.199,326.561L475.199,326.561z"/>
</svg>
